HIERARCHY
ROOT hip
{
  OFFSET 0 0 0
  CHANNELS 6 Xposition Yposition Zposition Zrotation Yrotation Xrotation
  JOINT abdomen
  {
    OFFSET 0 20.6881 -0.73152
    CHANNELS 3 Zrotation Xrotation Yrotation
    JOINT chest
    {
      OFFSET 0 11.7043 -0.48768
      CHANNELS 3 Zrotation Xrotation Yrotation
      JOINT neck
      {
        OFFSET 0 22.1894 -2.19456
        CHANNELS 3 Zrotation Xrotation Yrotation
        JOINT head
        {
          OFFSET -0.24384 7.07133 1.2192
          CHANNELS 3 Zrotation Xrotation Yrotation
          JOINT leftEye
          {
            OFFSET 4.14528 8.04674 8.04672
            CHANNELS 3 Zrotation Xrotation Yrotation
            End Site
            {
              OFFSET 1 0 0
            }
          }
          JOINT rightEye
          {
            OFFSET -3.6576 8.04674 8.04672
            CHANNELS 3 Zrotation Xrotation Yrotation
            End Site
            {
              OFFSET 1 0 0
            }
          }
        }
      }
      JOINT rCollar
      {
        OFFSET -2.68224 19.2634 -4.8768
        CHANNELS 3 Zrotation Xrotation Yrotation
        JOINT rShldr
        {
          OFFSET -8.77824 -1.95073 1.46304
          CHANNELS 3 Zrotation Xrotation Yrotation
          JOINT rForeArm
          {
            OFFSET -28.1742 -1.7115 0.48768
            CHANNELS 3 Zrotation Xrotation Yrotation
            JOINT rHand
            {
              OFFSET -22.5879 0.773209 7.07136
              CHANNELS 3 Zrotation Xrotation Yrotation
              JOINT rThumb1
              {
                OFFSET -1.2192 -0.487915 3.41376
                CHANNELS 3 Zrotation Xrotation Yrotation
                JOINT rThumb2
                {
                  OFFSET -3.37035 -0.52449 3.41376
                  CHANNELS 3 Zrotation Xrotation Yrotation
                  End Site
                  {
                    OFFSET -1.78271 -1.18214 1.43049
                  }
                }
              }
              JOINT rIndex1
              {
                OFFSET -7.75947 0.938293 5.60832
                CHANNELS 3 Zrotation Xrotation Yrotation
                JOINT rIndex2
                {
                  OFFSET -2.54057 -0.884171 1.56538
                  CHANNELS 3 Zrotation Xrotation Yrotation
                  End Site
                  {
                    OFFSET -1.62519 -0.234802 1.16502
                  }
                }
              }
              JOINT rMid1
              {
                OFFSET -8.24714 1.18213 3.41376
                CHANNELS 3 Zrotation Xrotation Yrotation
                JOINT rMid2
                {
                  OFFSET -3.10165 -0.590103 1.0647
                  CHANNELS 3 Zrotation Xrotation Yrotation
                  End Site
                  {
                    OFFSET -2.48547 -0.328903 0.83742
                  }
                }
              }
              JOINT rRing1
              {
                OFFSET -8.82822 0.546677 1.51678
                CHANNELS 3 Zrotation Xrotation Yrotation
                JOINT rRing2
                {
                  OFFSET -2.60934 -0.819778 -0.0198488
                  CHANNELS 3 Zrotation Xrotation Yrotation
                  End Site
                  {
                    OFFSET -2.33842 -0.294052 0.168128
                  }
                }
              }
              JOINT rPinky1
              {
                OFFSET -8.27202 -0.0477905 -0.4584
                CHANNELS 3 Zrotation Xrotation Yrotation
                JOINT rPinky2
                {
                  OFFSET -1.82734 -0.647385 -0.700984
                  CHANNELS 3 Zrotation Xrotation Yrotation
                  End Site
                  {
                    OFFSET -1.69225 -0.51767 -0.607171
                  }
                }
              }
            }
          }
        }
      }
      JOINT lCollar
      {
        OFFSET 2.68224 19.2634 -4.8768
        CHANNELS 3 Zrotation Xrotation Yrotation
        JOINT lShldr
        {
          OFFSET 8.77824 -1.95073 1.46304
          CHANNELS 3 Zrotation Xrotation Yrotation
          JOINT lForeArm
          {
            OFFSET 28.1742 -1.7115 0.48768
            CHANNELS 3 Zrotation Xrotation Yrotation
            JOINT lHand
            {
              OFFSET 22.5879 0.773209 7.07136
              CHANNELS 3 Zrotation Xrotation Yrotation
              JOINT lThumb1
              {
                OFFSET 1.2192 -0.487915 3.41376
                CHANNELS 3 Zrotation Xrotation Yrotation
                JOINT lThumb2
                {
                  OFFSET 3.37035 -0.52449 3.41376
                  CHANNELS 3 Zrotation Xrotation Yrotation
                  End Site
                  {
                    OFFSET 1.78271 -1.18214 1.43049
                  }
                }
              }
              JOINT lIndex1
              {
                OFFSET 7.75947 0.938293 5.60832
                CHANNELS 3 Zrotation Xrotation Yrotation
                JOINT lIndex2
                {
                  OFFSET 2.54057 -0.884171 1.56538
                  CHANNELS 3 Zrotation Xrotation Yrotation
                  End Site
                  {
                    OFFSET 1.62519 -0.234802 1.16502
                  }
                }
              }
              JOINT lMid1
              {
                OFFSET 8.24714 1.18213 3.41376
                CHANNELS 3 Zrotation Xrotation Yrotation
                JOINT lMid2
                {
                  OFFSET 3.10165 -0.590103 1.0647
                  CHANNELS 3 Zrotation Xrotation Yrotation
                  End Site
                  {
                    OFFSET 2.48547 -0.328903 0.83742
                  }
                }
              }
              JOINT lRing1
              {
                OFFSET 8.82822 0.546677 1.51678
                CHANNELS 3 Zrotation Xrotation Yrotation
                JOINT lRing2
                {
                  OFFSET 2.60934 -0.819778 -0.0198488
                  CHANNELS 3 Zrotation Xrotation Yrotation
                  End Site
                  {
                    OFFSET 2.33842 -0.294052 0.168128
                  }
                }
              }
              JOINT lPinky1
              {
                OFFSET 8.27202 -0.0477905 -0.4584
                CHANNELS 3 Zrotation Xrotation Yrotation
                JOINT lPinky2
                {
                  OFFSET 1.82734 -0.647385 -0.700984
                  CHANNELS 3 Zrotation Xrotation Yrotation
                  End Site
                  {
                    OFFSET 1.69225 -0.51767 -0.607171
                  }
                }
              }
            }
          }
        }
      }
    }
  }
  JOINT rButtock
  {
    OFFSET -8.77824 4.35084 1.2192
    CHANNELS 3 Zrotation Xrotation Yrotation
    JOINT rThigh
    {
      OFFSET 0 -1.70687 -2.19456
      CHANNELS 3 Zrotation Xrotation Yrotation
      JOINT rShin
      {
        OFFSET 0 -36.8199 0.73152
        CHANNELS 3 Zrotation Xrotation Yrotation
        JOINT rFoot
        {
          OFFSET 0.73152 -45.1104 -5.12064
          CHANNELS 3 Zrotation Xrotation Yrotation
          End Site
          {
            OFFSET -1.1221 -3.69964 12.103
          }
        }
      }
    }
  }
  JOINT lButtock
  {
    OFFSET 8.77824 4.35084 1.2192
    CHANNELS 3 Zrotation Xrotation Yrotation
    JOINT lThigh
    {
      OFFSET 0 -1.70687 -2.19456
      CHANNELS 3 Zrotation Xrotation Yrotation
      JOINT lShin
      {
        OFFSET 0 -36.8199 0.73152
        CHANNELS 3 Zrotation Xrotation Yrotation
        JOINT lFoot
        {
          OFFSET -0.73152 -45.1104 -5.12064
          CHANNELS 3 Zrotation Xrotation Yrotation
          End Site
          {
            OFFSET 1.1221 -3.69964 12.103
          }
        }
      }
    }
  }
}
MOTION
Frames:	7
Frame Time:	0.03333
0.0 0.0 0.0 0.0 0.0 0.0 0.0 0.0 0.0 0.0 0.0 0.0 0.0 0.0 0.0 0.0 0.0 0.0 0.0 0.0 0.0 0.0 0.0 0.0 0.0 0.0 0.0 0.0 0.0 0.0 0.0 0.0 0.0 0.0 0.0 0.0 0.0 0.0 0.0 0.0 0.0 0.0 0.0 0.0 0.0 0.0 0.0 0.0 0.0 0.0 0.0 0.0 0.0 0.0 0.0 0.0 0.0 0.0 0.0 0.0 0.0 0.0 0.0 0.0 0.0 0.0 0.0 0.0 0.0 0.0 0.0 0.0 0.0 0.0 0.0 0.0 0.0 0.0 0.0 0.0 0.0 0.0 0.0 0.0 0.0 0.0 0.0 0.0 0.0 0.0 0.0 0.0 0.0 0.0 0.0 0.0 0.0 0.0 0.0 0.0 0.0 0.0 0.0 0.0 0.0 0.0 0.0 0.0 0.0 0.0 0.0 0.0 0.0 0.0 0.0 0.0 0.0 0.0 0.0 0.0 0.0 0.0 0.0 0.0 0.0 0.0 0.0 0.0 0.0 0.0 0.0 0.0
0.16169999999999998 59.691 4.174300000000001 -101.104899 77.234231 -94.237436 4.108997 25.99804 -1.649566 9.32893 -12.374501 -6.569945 9.400731 32.116359 102.6688 -46.025554 15.454428 -150.851148 0.001083 -0.0 -0.001039 0.001083 -0.0 -0.001039 -159.219684 -48.724787 170.568967 162.568644 -1.812956 -166.738136 55.076203 3.189904 153.194016 -95.722895 67.824 73.791749 -179.37469 -16.876645 89.359181 -20.005999 -43.078881 -1.642095 -152.31601 -18.947838 121.429992 -79.126802 57.460407 61.618721 -82.840604 61.111718 74.532198 7.252798 -11.594218 -0.989736 -0.001099 0.022791 0.006044 10.32342 0.112636 -0.049213 -132.046864 -18.854828 -129.57841 -161.576348 55.941672 -147.004152 44.041592 64.186206 -46.711958 -75.445595 -20.803016 -82.404672 172.482775 -22.654051 -37.817623 -178.943754 -12.186347 -143.413418 -90.437314 -50.939156 -38.665134 167.08082 -56.06101 -137.689735 166.821328 -43.974003 -122.061309 24.995027 47.498583 -15.74572 39.288877 53.3663 -32.877446 151.567969 24.894728 -137.07436 0.016493 -1.323186 0.415609 156.416811 -27.668819 -175.096391 23.394112 -36.348745 22.493466 -76.629693 86.262902 37.328533 -179.99133 75.749208 -0.00765 156.084713 26.651818 -135.328174 -51.787469 -57.559228 -41.293666 72.329064 5.842288 179.314396 0.000466 0.001432 -0.0006 63.089524 -52.438507 68.083022 84.254346 57.50194 -13.928031 -36.403492 12.780119 -52.207801
0.23609999999999998 58.57019999999999 5.6292 -97.477797 78.349721 -89.453135 4.161782 19.016181 -180.0 -8.298333 7.87505 170.220197 9.352045 30.398583 91.446816 -45.319292 7.479332 -142.970745 0.005417 -0.0 -0.002828 -0.000319 -0.0 0.002264 -143.954657 37.588612 148.438492 -80.156946 44.049428 69.360898 -48.503721 -7.094331 178.869913 127.144301 -73.576575 107.393913 -93.743872 37.963828 53.548396 168.01001 -44.852735 73.408241 -10.28419 14.665775 6.659017 -153.101759 1.069324 109.212281 -10.97563 25.789965 7.639849 -167.229833 -17.328313 144.20672 -0.014153 -1.322988 -0.416955 11.216117 -13.788503 -1.715429 -25.537191 -38.088202 -24.597065 63.424162 85.43552 -24.493844 -2.459979 -18.21636 3.668943 101.70624 -25.583773 -177.22292 -6.247439 26.113967 143.766408 178.688325 -4.144504 -143.125114 -83.253877 -50.257491 -33.616462 31.900321 5.689128 8.148899 122.652632 23.930688 -103.498673 65.469582 55.235029 -45.663627 -78.538558 -80.918402 -49.689381 163.537308 -4.931266 -143.170887 0.000848 0.022695 -0.006662 -8.993071 14.950596 -2.003412 146.22541 15.470127 142.748466 -16.873971 43.805265 -6.041157 0.004167 0.000176 0.002083 -32.855104 -43.868133 -42.981607 -49.88091 61.922743 -110.386556 -7.624354 25.067812 171.836195 -0.0049 -0.000854 -0.0049 66.246677 -54.947373 -180.0 88.640373 -39.702896 -173.425556 41.824946 -49.074351 113.871256
0.3253 57.5318 6.8592 -89.973923 79.86942 -81.415633 2.765616 17.552397 170.899688 -9.687799 6.41582 179.318582 8.837719 35.17496 119.044044 -43.604132 27.71103 -162.316064 -0.002252 -0.0 0.001651 -0.002572 -0.0 0.003848 -142.973892 39.43147 147.389631 -118.873055 47.092526 100.572454 -173.913086 -82.789768 38.224123 -179.693867 -8.382577 143.301015 81.971775 -50.091633 32.722703 -95.871625 38.47359 59.079859 -140.762505 1.380223 116.228853 -63.521312 56.817586 45.59965 -161.518582 -9.304798 143.62351 179.412718 -49.498753 140.644452 -145.118892 0.267474 -179.212977 -156.515551 15.308886 178.977736 7.928891 24.811506 7.002686 2.807166 2.247894 0.570466 155.459691 -3.227716 -161.777871 -138.279996 -17.155265 168.56091 -172.187757 -1.400278 -33.924665 175.613364 5.703528 -142.306255 -1.590683 -1.575667 0.222744 133.336455 -32.168384 -117.594308 148.884043 -12.609987 -120.245662 -1.581947 17.413632 6.064615 -68.981655 -80.154826 -40.576554 154.205844 20.018331 -138.526988 71.92416 72.975263 -89.771173 -4.240943 37.653627 -0.989971 -1.298873 3.491501 -1.192696 -2.436365 0.057323 -0.030677 -179.986534 75.750394 -0.009214 154.797327 19.085155 -124.790374 -63.035626 -50.261146 11.193374 160.503511 70.327212 -64.52207 -0.000635 -0.001068 0.000816 66.039998 -54.314928 155.481176 97.360453 -24.220643 59.325897 -37.126282 5.219606 -135.845898
0.3759 56.2568 7.6642 -80.675045 80.923021 -71.885752 1.623485 21.112528 14.912834 5.258488 -14.400037 -24.182263 7.188581 37.692553 135.427845 -38.600134 38.827538 -175.432967 0.002615 -0.0 -0.000249 0.002615 -0.0 -0.000249 0.16296 -0.990051 -0.2186 -128.727701 -11.826524 176.978528 16.896839 -46.040715 -135.047731 -175.590721 4.004971 142.329057 -171.60488 -9.285598 89.95015 77.290889 -68.240086 58.99121 153.864781 -71.66386 97.691081 -46.29227 53.652295 36.666023 173.120033 -66.297358 137.611972 -4.998212 20.723299 4.542064 -0.061045 -3.510254 -1.10473 11.777685 -26.208385 -3.159032 29.535017 82.028251 8.251135 9.924311 26.43438 5.155984 157.797357 -22.115445 -165.467327 -13.354515 61.552786 61.453254 129.680365 59.751597 112.096597 1.233186 -16.914487 2.865635 10.203649 9.661875 -2.406005 102.226564 4.761956 -93.349087 0.328929 0.529519 -0.186256 113.49423 38.230105 -88.864924 -10.084536 -31.592103 3.250962 163.843066 -6.162474 -143.459115 0.021236 -1.724166 0.543112 154.093511 12.761759 -170.106618 87.575678 -50.208866 85.929934 9.179775 -25.149602 12.081612 -179.999236 75.750121 -0.000788 153.311917 17.096043 -0.0 -22.933713 64.383582 48.168691 156.739823 -26.299552 22.95117 -0.000699 -0.000479 -0.000349 67.870475 -51.164844 -0.0 -88.267857 37.730705 5.667499 26.114304 6.275919 86.810004
0.46430000000000005 55.0284 8.3157 -71.441124 82.189246 -62.270976 1.652739 20.00569 -0.500839 8.081727 -12.771437 -9.013468 8.642816 34.837514 116.360712 -43.637175 26.639842 -159.55276 0.001994 0.0 0.004854 -0.003734 -0.0 0.004786 -155.41694 -2.951477 161.718499 -28.885436 12.675232 11.393864 -17.66289 -37.671833 -158.625413 174.525354 -27.116625 143.110527 -179.373529 -16.877081 89.359868 111.594493 -67.727273 84.974777 -0.327106 0.529899 0.187046 72.156367 -56.486135 24.080184 -171.060698 -38.900282 145.269766 -167.539573 -17.336739 143.860826 0.005084 1.854454 0.582268 -156.149468 -52.381475 178.588602 -150.748039 31.684779 -146.495862 -150.445102 19.318148 -143.387154 9.651422 34.836232 -11.199067 154.316128 -32.4783 -112.415613 37.451647 5.258882 150.825827 -158.184861 -57.49197 -134.452982 93.743328 37.96364 -53.54878 159.810584 -32.732884 -79.407464 152.103918 -18.557019 -121.367604 162.988936 -19.425899 -119.56232 82.840929 61.109575 -74.532251 -3.18119 0.736248 -0.256167 0.013358 -1.323209 0.415534 78.190562 78.782883 -91.712084 -17.60289 61.627706 -12.871332 95.158509 -51.434332 93.507862 -0.042247 0.000257 -0.031685 -46.412002 -51.043501 -39.828626 -7.708124 70.531357 42.253112 -157.681953 -6.653089 31.342616 -0.0 0.000246 0.001173 67.787221 -51.063759 72.37831 77.171916 66.524249 -108.816537 92.090159 25.726596 -1.832885
0.6282 53.771800000000006 8.677700000000002 -61.549396 82.924085 -51.855916 0.011561 14.06874 160.958599 -10.725836 5.223059 -171.207723 -13.345188 27.629312 -52.096729 42.190029 -12.318312 6.230005 0.001518 -0.0 -0.002608 0.001526 0.0 0.002746 -153.592012 -75.693478 -178.261652 -0.204772 7.85525 -23.029969 -46.327797 7.864118 146.899058 19.27373 -60.183269 6.89465 -89.136802 38.427155 50.298605 -138.396306 -23.924202 79.533872 -33.798189 34.484671 25.495579 1.566804 8.417434 -0.187834 -125.643401 49.839661 115.273842 -111.61652 59.784993 102.306629 -145.100441 -1.522197 -178.650176 2.776322 -43.845051 -17.913005 -126.798495 -26.620359 -124.513454 1.919884 -2.837452 -2.586843 80.166097 68.371722 -83.260864 -65.909321 -25.70358 -92.936633 -93.922237 40.035541 -69.44389 105.75431 67.421514 -83.414771 0.441525 0.435311 -0.0694 -16.285032 -24.724111 11.73077 -0.184917 -0.300502 0.10311 163.775515 -16.937474 -109.973668 17.370507 35.631891 -12.955112 -0.067481 9.334124 -1.527173 0.021758 -1.725946 0.543123 -10.939229 -7.439317 0.975996 -8.479091 26.834166 -7.451947 160.185713 55.496984 149.846171 -0.000264 -0.000281 0.0 -52.153309 -53.034003 -58.167756 -49.666876 73.557433 143.080836 -21.847227 -19.452101 -82.463022 179.994781 75.74812 0.003571 -142.850838 1.566247 -0.32437 96.863447 68.151234 -8.716781 -126.284913 55.792397 21.108968
